<svg xmlns="http://www.w3.org/2000/svg" width="182.5" height="176.043" viewBox="0 0 182.5 176.043">
  <path id="Icon_awesome-user-alt" data-name="Icon awesome-user-alt" d="M91.25,99.024c28.337,0,51.328-22.177,51.328-49.512S119.587,0,91.25,0,39.922,22.177,39.922,49.512,62.913,99.024,91.25,99.024Zm45.625,11h-19.64a64.119,64.119,0,0,1-51.97,0H45.625c-25.2,0-45.625,19.7-45.625,44.011v5.5c0,9.112,7.664,16.5,17.109,16.5H165.391c9.446,0,17.109-7.392,17.109-16.5v-5.5C182.5,129.729,162.076,110.027,136.875,110.027Z" fill="#368ca7"/>
</svg>
